PathFileType	4	(X/Y/Z)	OpenSim_Sub04_CSStiffKnee_Accel.trc
DataRate	CameraRate	NumFrames	NumMarkers	Units	OrigDataRate	OrigDataStartFrame	OrigNumFrames
100	100	27	8	m	100	5560	7413
Frame#	Time	torso_imu_offset_imu	pelvis_imu_offset_imu	tibia_r_imu_offset_imu	femur_r_imu_offset_imu	tibia_l_imu_offset_imu	femur_l_imu_offset_imu	toes_r_imu_offset_imu	toes_l_imu_offset_imu
				X1	Y1	Z1	X2	Y2	Z2	X3	Y3	Z3	X4	Y4	Z4	X5	Y5	Z5	X6	Y6	Z6	X7	Y7	Z7	X8		Y8	Z8	

5560	55.59000000	-6.97210841	0.88027779	7.20462281	6.49458130	1.41015417	4.54728334	9.34904479	1.22665652	1.75088250	8.92081104	-2.77887148	0.31997937	8.95476922	-1.63001358	2.02724742	8.89356548	-1.41479032	0.38606065	6.02022171	-1.44114354	8.28010500	7.00945529	4.93146265	8.55250800
5561	55.60000000	-7.05593606	0.80791682	7.27270078	6.81863632	1.69073108	4.54905039	9.57820197	0.85180891	2.14459423	9.06660930	-2.97516687	0.36344660	8.85612686	-1.99575842	2.36611038	8.53424390	-1.70003121	0.03671891	6.14526659	-1.05776490	8.47584608	7.01839510	4.90009633	9.01285082
5562	55.61000000	-7.06790659	0.72915108	7.29651302	7.12319510	1.90854136	4.51784319	10.28766630	0.95106449	2.25542373	9.03923464	-3.13699039	0.45728633	8.61544511	-2.67133549	2.49526884	8.37617203	-1.75682657	-0.37272607	6.32777056	-0.95568467	8.45495284	7.50523571	4.16165412	9.72552811
5563	55.62000000	-7.14686384	0.69435554	7.28065698	7.45741164	2.05501015	4.47156084	10.73422591	0.96838751	1.75428267	9.54225051	-3.10965038	0.54019433	8.66837995	-3.53408044	2.15577192	8.41167179	-1.52035105	-0.72735325	6.30131234	-1.15900343	8.58824582	8.06940874	2.75438009	10.35650283
5564	55.63000000	-7.24423138	0.75521863	7.35374620	7.74873599	2.24509770	4.45013773	10.56549230	0.72118198	1.28031258	9.18327278	-2.97821663	0.58900287	9.00036303	-4.08971475	1.69613395	8.59703636	-1.26477830	-0.87005099	6.24782581	-1.64346784	8.12556542	8.25879835	1.65210633	10.62581642
5565	55.64000000	-7.27878912	0.90136278	7.48856698	8.00002682	2.39667591	4.40885187	9.96964663	0.29367750	0.85754829	8.61140232	-2.90499259	0.50870663	9.31827601	-4.20042181	1.60400156	8.87662329	-0.84121408	-0.86305865	6.02373612	-2.04318530	7.89016133	8.51219694	1.42494430	10.87114403
5566	55.65000000	-7.20704280	0.97738551	7.53705332	8.17812471	2.45672675	4.36968807	9.49154036	0.10490694	0.49638907	8.29418429	-2.83077289	0.44337324	9.58236078	-3.97428005	1.81137115	8.39395513	-0.35425686	-0.87543836	6.18107186	-2.16741682	7.59551088	9.16606899	1.39485813	10.98598728
5567	55.66000000	-7.12334142	1.04599195	7.65269788	8.23577767	2.56139059	4.30011861	9.22207177	0.49099143	0.18929018	8.51482908	-2.38026410	0.32439145	9.68995057	-3.50779663	2.10707012	8.64320463	0.27261044	-0.71995247	6.15444391	-2.23879139	7.41355334	9.60668764	1.15141240	10.84197556
5568	55.67000000	-7.18235679	0.99780025	7.80041238	8.16304916	2.53768663	4.18794862	9.31506599	1.17079714	0.19921968	8.61986522	-2.40284006	0.06562318	9.66957004	-3.27619012	2.39187808	8.58709621	0.83913906	-0.51068983	6.03003950	-2.27691091	7.50133129	9.45398006	0.67642232	10.39386744
5569	55.68000000	-7.23002679	0.88710222	7.97459271	8.06722420	2.42390715	4.11077404	9.56268213	1.62349100	0.18413374	8.36946774	-2.43287587	-0.17190708	9.61336635	-3.44507670	2.35566610	8.66541399	1.17802381	-0.19035036	6.03828010	-2.25747921	7.54047046	9.37539022	0.36773547	9.95262700
5570	55.69000000	-7.17160211	0.78622692	8.10585895	7.97461315	2.37903283	4.06246654	9.60538287	1.57955870	0.04358560	8.53497950	-1.84186969	-0.20147318	9.64284637	-3.53896595	2.05954728	8.93987747	1.28777770	0.08445239	6.24015090	-2.17460539	7.30014481	9.39428616	0.64438738	9.61975450
5571	55.70000000	-7.06747083	0.65972212	8.21036193	7.83331470	2.18448595	4.04446048	9.51025475	1.15263721	0.24360203	8.30993729	-2.04988945	-0.29015039	9.81568052	-3.58747849	1.84001183	9.25249877	1.03579863	0.26175374	6.46721090	-2.04368022	7.20503525	9.07032441	1.12704955	9.31064252
5572	55.71000000	-6.98844609	0.54499764	8.30930038	7.81852256	1.98856888	4.04268515	9.52028265	0.79239942	0.29145530	8.40962528	-1.70311680	-0.29667065	9.91600776	-3.82663299	1.50251920	9.71395656	0.62865479	0.34123186	6.04987935	-2.02158591	7.59052627	8.62271763	1.47552845	9.09971893
5573	55.72000000	-6.93403273	0.49478263	8.29526321	7.81471365	1.73516163	4.06822777	9.83750931	0.92726677	0.46498260	8.50464863	-1.49660386	-0.04931401	9.86558826	-4.32366005	1.13318386	9.89184091	0.23977208	0.32300964	5.98222630	-1.62337824	7.85662981	8.28398508	1.81079942	9.09331487
5574	55.73000000	-7.15255558	0.40152830	8.33399609	7.93129965	1.58168314	4.09612790	10.17201899	1.40260418	1.22338642	8.73836743	-1.95339460	0.09259168	9.67837030	-4.85763071	1.06915503	10.01093401	-0.18521511	0.17529160	5.73100348	-1.59252663	8.12037241	9.25555041	1.66108017	9.53831834
5575	55.74000000	-7.43992182	0.27684916	8.35894873	8.21215969	1.47503591	4.08101965	10.17693286	1.81400384	1.77245963	9.25557214	-2.29031729	0.03038957	9.48175507	-5.13972148	0.93757084	9.94512364	-0.75212588	-0.11659048	6.01447707	-1.43925521	8.05968690	10.84758845	0.77090668	9.72717331
5576	55.75000000	-7.51187436	0.27411183	8.35400123	8.52649152	1.38276644	4.03270661	10.08944443	1.77758267	1.90277091	9.61944612	-2.59813462	-0.08602901	9.32241617	-5.50240838	0.77888419	9.82805835	-1.30604254	-0.45003132	6.17454351	-1.12037578	8.04950373	10.96540333	-0.35526380	9.43403723
5577	55.76000000	-7.43105846	0.33970341	8.31718133	8.79498979	1.54407883	3.96573492	10.06148922	1.18862664	1.86491927	9.61307992	-2.90322866	-0.14495664	9.10261141	-5.83354181	0.61578580	9.69867730	-1.69149460	-0.79645960	6.02043456	-1.06291544	8.06588893	10.56146090	-1.22163555	7.59209826
5578	55.77000000	-7.48676089	0.38862661	8.32312825	8.91525297	1.73440282	3.92302162	10.06124231	0.17794442	1.41532970	9.18902913	-3.13567847	-0.09405753	9.11345311	-5.40051885	0.55270072	9.60471735	-2.10532959	-0.93575418	5.88076032	-1.20258303	8.17250642	10.97675286	0.52004433	5.84080113
5579	55.78000000	-7.51846481	0.46131761	8.13732765	8.87046848	1.87112972	3.80772350	10.05544721	-0.68705216	0.95176158	8.64870955	-3.37259378	-0.06836968	9.11572865	-4.23956032	1.01133034	9.34945992	-2.24232480	-1.13667148	5.89200491	-1.75472744	7.95427503	11.86671501	1.62847859	5.00729886
5580	55.79000000	-7.40869446	0.55332128	8.05842386	8.70232962	1.98245408	3.66980853	9.99866325	-0.82219968	0.82772318	8.37579103	-3.56338235	0.04725028	9.05371347	-3.15502373	1.34389609	9.11227115	-2.15965778	-1.20538728	5.95759424	-1.94864473	7.85754441	11.73079304	2.34596936	3.54879921
5581	55.80000000	-7.40042391	0.53879339	7.95793365	8.44833114	2.07789662	3.52643336	10.01457056	-0.21979712	0.97706552	8.16945409	-3.71541324	0.18227135	8.92537573	-2.78004860	1.41734431	8.91912408	-1.78875716	-1.09994338	5.85476675	-1.90515898	7.99492626	11.97236691	3.56684263	2.05715905
5582	55.81000000	-7.41727008	0.45739893	7.94211573	8.18719625	2.09685989	3.34140688	9.95857440	0.36266032	1.23780672	8.31414314	-3.66386010	0.38880759	8.66139465	-2.74317091	1.40124556	8.57985385	-1.10943469	-0.81361346	5.90581943	-1.73645696	7.94125790	13.37899505	3.44606028	1.28369467
5583	55.82000000	-7.30569423	0.38277165	7.96155986	8.00807033	2.09963929	3.14179782	9.92973354	0.61931126	1.72673244	8.48406290	-3.84480471	0.55016959	8.50276117	-2.70696492	1.36231076	8.27455646	-0.47538858	-0.36343812	5.60400082	-1.73572460	8.18198191	13.80259911	3.90694221	0.18498867
5584	55.83000000	-7.33679929	0.31633528	7.86068241	7.87186786	1.96314194	2.98639039	9.99084065	0.48194420	2.03390508	8.55090739	-3.90522232	0.55426691	8.44231221	-3.01563395	1.16942776	7.86539497	0.01550479	0.08012522	5.61266084	-1.70541646	8.24549153	14.18330417	4.23296420	-1.02235497
5585	55.84000000	-7.42568025	0.31240542	7.90110583	7.85090576	1.89157787	2.89639051	10.02183269	-0.08462876	1.95026977	8.69153639	-3.60001390	0.63392382	8.30658050	-3.75210425	0.62288814	7.53999705	0.41075238	0.44034698	5.82963443	-1.74986248	8.15424183	16.25271374	-0.02665589	-3.47713028
5586	55.85000000	-7.36568627	0.33543080	7.98584995	7.83644703	1.81688337	2.98329506	10.27392354	-0.62898543	2.11173098	8.98802268	-3.28958599	0.73304065	8.24696853	-5.26228001	0.35507942	7.22628879	0.80447615	0.67048281	5.81416278	-1.85108667	8.33106194	22.06038239	13.67454429	0.73360108
